<?xml version="1.0" encoding="UTF-8" standalone="no"?>
<!-- Generator: Adobe Illustrator 19.0.0, SVG Export Plug-In . SVG Version: 6.00 Build 0)  -->

<svg
   xmlns:dc="http://purl.org/dc/elements/1.1/"
   xmlns:cc="http://creativecommons.org/ns#"
   xmlns:rdf="http://www.w3.org/1999/02/22-rdf-syntax-ns#"
   xmlns:svg="http://www.w3.org/2000/svg"
   xmlns="http://www.w3.org/2000/svg"
   xmlns:sodipodi="http://sodipodi.sourceforge.net/DTD/sodipodi-0.dtd"
   xmlns:inkscape="http://www.inkscape.org/namespaces/inkscape"
   version="1.1"
   id="Capa_1"
   x="0px"
   y="0px"
   viewBox="0 0 512 512"
   style="enable-background:new 0 0 512 512;"
   xml:space="preserve"
   sodipodi:docname="success-icon.svg"
   inkscape:version="0.92.2 5c3e80d, 2017-08-06"><metadata
     id="metadata4046"><rdf:RDF><cc:Work
         rdf:about=""><dc:format>image/svg+xml</dc:format><dc:type
           rdf:resource="http://purl.org/dc/dcmitype/StillImage" /><dc:title></dc:title></cc:Work></rdf:RDF></metadata><defs
     id="defs4044" /><sodipodi:namedview
     pagecolor="#ffffff"
     bordercolor="#666666"
     borderopacity="1"
     objecttolerance="10"
     gridtolerance="10"
     guidetolerance="10"
     inkscape:pageopacity="0"
     inkscape:pageshadow="2"
     inkscape:window-width="1366"
     inkscape:window-height="702"
     id="namedview4042"
     showgrid="false"
     inkscape:zoom="0.4609375"
     inkscape:cx="256"
     inkscape:cy="256"
     inkscape:window-x="0"
     inkscape:window-y="0"
     inkscape:window-maximized="1"
     inkscape:current-layer="g4369" /><path
     style="fill:#6C7D87;"
     d="M394.685,484.734c-0.361-1.811-22.352-112.29-22.594-113.425c-2.641-12.788-9.797-22.584-20.3-28.895  c-6.296-3.798-9.871-4.403-13.954-5.658c2.87,1.003-52.627-18.393-74.99-26.209c-4.426-1.518-7.399-5.68-7.399-10.359v-22.963  c-28.723,14.362-58.843,13.455-85.578,0.408v22.555c0,4.679-2.973,8.842-7.399,10.359c-3.152,1.081,11.418-3.915-30.827,10.57  h-0.029c0.001,0.003,0.003,0.006,0.003,0.006l-0.003,0.005l-44.103,15.628c-2.036,0.601-6.058,1.788-5.802,1.712  c-10.492,3.913-19.59,11.344-24.688,21.735c-3.529,7.158-2.482,4.644-19.607,90.609c-6.341,32.836-7.741,35.228-6.948,42.564  c2.207,20.506,23.299,18.366,23.87,18.615c40.442,0,162.31,0,158.472,0c0.425,0,18.651,0,17.518,0c28.162,0,127.999,0,140.68,0  C371.233,511.915,398.822,514.015,394.685,484.734z"
     id="path3963" /><path
     style="fill:#566A75;"
     d="M56.42,484.734l22.593-123.729c-0.313,1.503,1.677-16.55,18.661-27.851  c-18.968,6.721-13.089,4.032-18.92,6.531c-11.007,4.971-19.543,13.417-23.752,25.319c-1.684,4.78-0.592,0.578-17.586,85.807  c-6.341,32.836-7.74,35.231-6.948,42.564c2.207,20.506,23.299,18.366,23.87,18.615c2.514,0,22.655,0,25.758,0  C61.922,511.991,54.069,501.363,56.42,484.734z"
     id="path3965" /><path
     style="fill:#DD9A5E;"
     d="M100.955,511.991c-14.707,0-31.647,0-46.618,0c-0.597-0.261-24.638,2.154-24.037-22.908  c0.131-5.344,0.8-5.569,7.115-38.272l0.365-1.833h63.175V511.991z"
     id="path3967" /><path
     style="fill:#D18C54;"
     d="M62.949,448.979H37.781l-0.365,1.832c-6.338,32.817-6.984,32.92-7.115,38.272  c-0.599,24.979,23.563,22.701,24.037,22.908c2.514,0,22.655,0,25.758,0c-16.739,0-24.375-8.806-24.037-22.908  C56.099,487.446,56.709,484.023,62.949,448.979z"
     id="path3969" /><path
     style="fill:#DD9A5E;"
     d="M169.87,273.671c0,64.056,0-7.297,0.001,43.155h0.027v1.542c0,10.249,6.546,19.359,16.264,22.613  c15.596,5.222,35.62,5.817,52.993,0c9.719-3.254,16.264-12.363,16.264-22.613v-1.542h0.027c0-10.039,0.001-37.785,0.001-43.155  C227.722,288.454,196.459,287.849,169.87,273.671z"
     id="path3971" /><path
     style="fill:#D18C54;"
     d="M195.662,325.39h-0.033c-0.002-53.629-0.001-35.76-0.002-39.505  c-8.89-1.782-17.559-4.842-25.758-9.214c0,64.056,0-10.297,0.001,40.155h0.027v1.542c0,10.249,6.546,19.359,16.264,22.613  c4.806,1.609,9.881,2.772,15.15,3.444C194.761,335.531,195.762,326.071,195.662,325.39z"
     id="path3973" /><path
     style="fill:#566A75;"
     d="M100.955,423.702c-4.268,0-7.728,3.459-7.728,7.728v80.561c5.36,0,9.702,0,15.455,0V431.43  C108.683,427.161,105.223,423.702,100.955,423.702z"
     id="path3975" /><path
     style="fill:#C6C6C6;"
     d="M462.833,511.991H212.658c-10.438,0-18.9-8.462-18.9-18.9l0,0c0-5.982,4.85-10.832,10.832-10.832  h266.311c5.982,0,10.832,4.85,10.832,10.832l0,0C481.733,503.529,473.271,511.991,462.833,511.991z"
     id="path3977" /><path
     style="fill:#B7B7B7;"
     d="M242.44,493.091L242.44,493.091c0-5.982,4.85-10.832,10.832-10.832H204.59  c-5.982,0-10.832,4.85-10.832,10.832v0.001c0,10.438,8.462,18.9,18.9,18.9h48.681C250.901,511.991,242.44,503.529,242.44,493.091z"
     id="path3979" /><path
     style="fill:#EDEDED;"
     d="M446.446,316.826H229.045c-6.8,0-12.364,5.564-12.364,12.364v140.705  c0,6.8,5.564,12.364,12.364,12.364h217.401c6.8,0,12.364-5.564,12.364-12.364V329.19C458.81,322.39,453.246,316.826,446.446,316.826  z"
     id="path3981" /><g
     id="g3987"><path
       style="fill:#DADADA;"
       d="M242.44,469.895V329.19c0-6.8,5.564-12.364,12.364-12.364h-25.758   c-6.8,0-12.364,5.564-12.364,12.364v140.705c0,6.8,5.564,12.364,12.364,12.364h25.758   C248.004,482.259,242.44,476.695,242.44,469.895z"
       id="path3983" /><circle
       style="fill:#DADADA;"
       cx="337.75"
       cy="399.54"
       r="17.859"
       id="circle3985" /></g><path
     style="fill:#C6C6C6;"
     d="M337.754,381.698c-13.617-0.022-22.389,14.799-15.475,26.774c6.917,11.98,24.136,11.784,30.925-0.014  C339.467,408.439,330.89,393.625,337.754,381.698z"
     id="path3989" /><path
     style="fill:#4C4846;"
     d="M210.329,0.122C143.77,0.376,87.577,54.712,87.577,123.744v46.85h247.279c0-44.397,0-30.37,0-70.089  c0-47.873-29.453-58.901-29.453-58.901C268.775-3.559,210.378,0.121,210.378,0.121"
     id="path3991" /><path
     style="fill:#3D3938;"
     d="M227.032,0.86c-75.434-8.587-136.82,48.348-139.35,118.012c-0.195,5.009-0.064,3.135-0.105,51.722  h29.453v-46.85C117.03,59.792,165.44,7.62,227.032,0.86z"
     id="path3993" /><g
     id="g3999"><path
       style="fill:#DD9A5E;"
       d="M118.03,155.882c-15.508-5.526-32.343,4.751-32.343,19.745c0,14.99,16.833,25.272,32.343,19.745   V155.882z"
       id="path3995" /><path
       style="fill:#DD9A5E;"
       d="M304.403,155.882c15.508-5.526,32.343,4.751,32.343,19.745c0,14.99-16.833,25.272-32.343,19.745   V155.882z"
       id="path3997" /></g><g
     id="g4005"><path
       style="fill:#D18C54;"
       d="M87.952,166.548c-9.059,17.197,10.014,35.974,30.078,28.825v-18.159   C106.329,181.382,93.246,176.6,87.952,166.548z"
       id="path4001" /><path
       style="fill:#D18C54;"
       d="M304.403,177.214v18.159c20.063,7.149,39.136-11.627,30.078-28.825   C330.693,173.742,316.108,181.384,304.403,177.214z"
       id="path4003" /></g><path
     style="fill:#EDAE6B;"
     d="M301.153,116.757c2.402,0.232,4.25,2.225,4.25,4.638c0,79.299,0.052,73.312-0.133,76.999  c-1.222,24.119-11.537,46.265-28.314,62.634c-58.791,57.322-156.895,16.67-159.846-63.736c-0.138-3.545-0.08-44.617-0.08-44.501  c0-18.467,16.389-32.557,34.667-29.918c28.787,4.155,70.806,2.541,107.47-28.799c3.767-3.22,9.485-2.18,11.891,2.153  C275.601,104.408,284.634,115.163,301.153,116.757z"
     id="path4007" /><path
     style="fill:#DD9A5E;"
     d="M142.881,197.292c-0.118-3.04-0.093-58.677-0.083-74.394c-14.377,2.157-25.767,14.5-25.767,29.893  c0-0.116-0.058,40.956,0.08,44.501c2.175,59.284,56.078,96.947,107.812,89.673C182.445,281.092,144.694,246.704,142.881,197.292z"
     id="path4009" /><g
     id="g4011" /><g
     id="g4013" /><g
     id="g4015" /><g
     id="g4017" /><g
     id="g4019" /><g
     id="g4021" /><g
     id="g4023" /><g
     id="g4025" /><g
     id="g4027" /><g
     id="g4029" /><g
     id="g4031" /><g
     id="g4033" /><g
     id="g4035" /><g
     id="g4037" /><g
     id="g4039" /><g
     id="g4369"
     transform="translate(428.403,-131.01651)"><circle
       id="circle4302"
       cy="579.8374"
       cx="15.837067"
       style="fill:#32ba7c;stroke-width:0.26562491"
       r="67.362473" /><path
       id="path4304"
       d="m -1.375438,610.22484 34.637531,34.63757 c 28.68747,-7.64994 49.937478,-33.78749 49.937478,-65.02491 0,-0.63757 0,-1.27499 0,-1.91247 l -27.199962,-25.0751 z"
       style="fill:#0aa06e;stroke-width:0.26562491"
       inkscape:connector-curvature="0" /><g
       id="g4310"
       transform="matrix(0.26562497,0,0,0.26562497,-51.52543,512.475)"><path
         id="path4306"
         d="m 260,310.4 c 11.2,11.2 11.2,30.4 0,41.6 l -23.2,23.2 c -11.2,11.2 -30.4,11.2 -41.6,0 L 93.6,272.8 c -11.2,-11.2 -11.2,-30.4 0,-41.6 L 116.8,208 c 11.2,-11.2 30.4,-11.2 41.6,0 z"
         style="fill:#ffffff"
         inkscape:connector-curvature="0" /><path
         id="path4308"
         d="m 348.8,133.6 c 11.2,-11.2 30.4,-11.2 41.6,0 l 23.2,23.2 c 11.2,11.2 11.2,30.4 0,41.6 l -176,175.2 c -11.2,11.2 -30.4,11.2 -41.6,0 l -23.2,-23.2 c -11.2,-11.2 -11.2,-30.4 0,-41.6 z"
         style="fill:#ffffff"
         inkscape:connector-curvature="0" /></g><g
       id="g4312" /><g
       id="g4314" /><g
       id="g4316" /><g
       id="g4318" /><g
       id="g4320" /><g
       id="g4322" /><g
       id="g4324" /><g
       id="g4326" /><g
       id="g4328" /><g
       id="g4330" /><g
       id="g4332" /><g
       id="g4334" /><g
       id="g4336" /><g
       id="g4338" /><g
       id="g4340" /></g></svg>